<svg width="22" height="22" viewBox="0 0 22 22" fill="none" xmlns="http://www.w3.org/2000/svg">
<path d="M10.75 0C16.6871 0 21.5 4.81294 21.5 10.75C21.5 16.6871 16.6871 21.5 10.75 21.5C4.81294 21.5 0 16.6871 0 10.75C0 4.81294 4.81294 0 10.75 0ZM10.75 14C10.0596 14 9.5 14.5596 9.5 15.25C9.5 15.9404 10.0596 16.5 10.75 16.5C11.4404 16.5 12 15.9404 12 15.25C12 14.5596 11.4404 14 10.75 14ZM10.75 5C10.3358 5 10 5.33579 10 5.75V11.75C10 12.1642 10.3358 12.5 10.75 12.5C11.1642 12.5 11.5 12.1642 11.5 11.75V5.75C11.5 5.33579 11.1642 5 10.75 5Z" fill="#EB4D3D"/>
</svg>
