<svg width="22" height="22" viewBox="0 0 22 22" fill="none" xmlns="http://www.w3.org/2000/svg">
<path d="M10.75 0C16.6871 0 21.5 4.81294 21.5 10.75C21.5 16.6871 16.6871 21.5 10.75 21.5C4.81294 21.5 0 16.6871 0 10.75C0 4.81294 4.81294 0 10.75 0ZM14.7803 7.71973C14.4874 7.42683 14.0126 7.42683 13.7197 7.71973L9.25 12.1895L7.78027 10.7197C7.48738 10.4268 7.01262 10.4268 6.71973 10.7197C6.42683 11.0126 6.42683 11.4874 6.71973 11.7803L8.71973 13.7803C8.86038 13.9209 9.05109 14 9.25 14C9.44891 14 9.63962 13.9209 9.78027 13.7803L14.7803 8.78027C15.0732 8.48738 15.0732 8.01262 14.7803 7.71973Z" fill="#101318"/>
</svg>
