<svg width="40" height="40" viewBox="0 0 40 40" fill="none" xmlns="http://www.w3.org/2000/svg">
<rect width="40" height="40" rx="8" fill="white"/>
<rect width="40" height="40" rx="8" fill="#FFC800" fill-opacity="0.08"/>
<path d="M28.0003 18.9998H12.0003M28.0003 18.9998V25.1998C28.0003 26.8799 28.0003 27.72 27.6733 28.3618C27.3857 28.9262 26.9268 29.3852 26.3623 29.6728C25.7205 29.9998 24.8805 29.9998 23.2003 29.9998H16.8003C15.1201 29.9998 14.2801 29.9998 13.6383 29.6728C13.0738 29.3852 12.6149 28.9262 12.3273 28.3618C12.0003 27.72 12.0003 26.8799 12.0003 25.1998V18.9998M28.0003 18.9998C29.1049 18.9998 30.0003 18.1044 30.0003 16.9998C30.0003 15.8952 29.1049 14.9998 28.0003 14.9998H12.0003C10.8957 14.9998 10.0003 15.8952 10.0003 16.9998C10.0003 18.1044 10.8957 18.9998 12.0003 18.9998M20.0003 14.9998V29.9998M20.0003 14.9998H23.5003C24.881 14.9998 26.0003 13.8805 26.0003 12.4998C26.0003 11.1191 24.881 9.99979 23.5003 9.99979H23.4201C22.2806 9.99979 21.2761 10.7472 20.9487 11.8386L20.0003 14.9998ZM20.0003 14.9998H16.5003C15.1196 14.9998 14.0003 13.8805 14.0003 12.4998C14.0003 11.1191 15.1196 9.99979 16.5003 9.99979H16.5805C17.72 9.99979 18.7245 10.7472 19.0519 11.8386L20.0003 14.9998Z" stroke="#FFC800" stroke-width="1.5" stroke-linecap="round" stroke-linejoin="round"/>
</svg>
